<svg xmlns="http://www.w3.org/2000/svg" width="304.614" height="209.413" viewBox="0 0 304.614 209.413"><defs><style>.a{fill:#6a63ac;}.b{fill:none;stroke:#f8a9d3;stroke-linecap:round;stroke-linejoin:round;stroke-width:3px;}</style></defs><g transform="translate(-39.841 -779.587)"><g transform="translate(-1954 181)"><rect class="a" width="13.217" height="176.519" transform="translate(1994 631.481)"/><rect class="a" width="13.217" height="108.052" transform="translate(2020.435 699.948)"/><rect class="a" width="13.217" height="94.545" transform="translate(2046.87 713.455)"/><rect class="a" width="13.217" height="40.519" transform="translate(2073.304 767.481)"/><rect class="a" width="13.217" height="89.143" transform="translate(2099.739 718.857)"/><rect class="a" width="13.217" height="148.571" transform="translate(2126.174 659.429)"/><rect class="a" width="13.217" height="81.039" transform="translate(2152.608 726.961)"/><rect class="a" width="13.217" height="121.558" transform="translate(2179.043 686.442)"/><rect class="a" width="13.217" height="162.078" transform="translate(2205.479 645.922)"/><rect class="a" width="13.217" height="148.571" transform="translate(2231.913 659.429)"/><rect class="a" width="13.217" height="118.857" transform="translate(2258.348 689.143)"/><rect class="a" width="13.217" height="208" transform="translate(2284.783 600)"/><path class="b" d="M1999.341,840.058h13.088l12.825,68.313h12.122l14,13.5h13.192l13.8,55.007h12.031l13.812-50.639h12.2l13.461-58.655h13.671l13.4,67.444h11.886l14.731-40.479h11.983l13.714-41.03h13.289l13.656,14.064h13.074l14.03,29.538h11.535l14.085-89.036h12.021" transform="translate(-4 -208)"/></g></g></svg>