<svg xmlns="http://www.w3.org/2000/svg" width="30" height="30" viewBox="0 0 30 30"><defs><style>.a{fill:#f4f4f4;}.b{fill:#6a63ac;}</style></defs><g transform="translate(-16 -14)"><circle class="a" cx="15" cy="15" r="15" transform="translate(16 14)"/><g transform="translate(23.37 25.5)"><path class="b" d="M13.556,18.45H4.894c-.217,0-.394-.354-.394-.788h0c0-.433.177-.787.394-.787h8.663c.217,0,.394.354.394.787h0C13.95,18.1,13.773,18.45,13.556,18.45Z" transform="translate(-4.43 -11.45)"/><path class="b" d="M19.125,25.2H5.136a.726.726,0,0,1-.636-.788h0a.726.726,0,0,1,.636-.787H19.125a.726.726,0,0,1,.636.787h0A.726.726,0,0,1,19.125,25.2Z" transform="translate(-4.5 -23.625)"/></g></g></svg>