<svg xmlns="http://www.w3.org/2000/svg" width="122.001" height="122" viewBox="0 0 122.001 122"><defs><style>.a{fill:#6a63ac;}.b{fill:#f8a9d3;}</style></defs><g transform="translate(-221 -390)"><path class="a" d="M-1897,95a60.616,60.616,0,0,1-23.744-4.794,60.8,60.8,0,0,1-19.39-13.073,60.8,60.8,0,0,1-13.073-19.39A60.618,60.618,0,0,1-1958,34a60.619,60.619,0,0,1,4.794-23.744,60.8,60.8,0,0,1,13.073-19.39,60.8,60.8,0,0,1,19.39-13.073A60.618,60.618,0,0,1-1897-27a60.619,60.619,0,0,1,23.744,4.794,60.8,60.8,0,0,1,19.39,13.073,60.8,60.8,0,0,1,13.073,19.39A60.62,60.62,0,0,1-1836,34a60.619,60.619,0,0,1-4.794,23.744,60.8,60.8,0,0,1-13.073,19.39,60.8,60.8,0,0,1-19.39,13.073A60.618,60.618,0,0,1-1897,95Zm0-112a51.058,51.058,0,0,0-51,51,51.057,51.057,0,0,0,51,51,51.058,51.058,0,0,0,51-51A51.058,51.058,0,0,0-1897-17Z" transform="translate(2179 417)"/><path class="b" d="M-1946.889,68.853h0a60.787,60.787,0,0,1-3.3-19.856,60.606,60.606,0,0,1,4.794-23.744,60.8,60.8,0,0,1,13.073-19.39,60.8,60.8,0,0,1,19.39-13.073,60.538,60.538,0,0,1,20.148-4.69V-1.878A51.146,51.146,0,0,0-1940.192,49a50.811,50.811,0,0,0,2.456,15.651l-9.152,4.205Z" transform="translate(2171.193 402.003)"/></g></svg>