<svg xmlns="http://www.w3.org/2000/svg" width="122.001" height="122" viewBox="0 0 122.001 122"><defs><style>.a{fill:#6a63ac;}.b{fill:#f8a9d3;}.c{fill:#ffe5f3;}</style></defs><g transform="translate(-40 -1073)"><path class="a" d="M-1897,95a60.616,60.616,0,0,1-23.744-4.794,60.8,60.8,0,0,1-19.39-13.073,60.8,60.8,0,0,1-13.073-19.39A60.618,60.618,0,0,1-1958,34a60.619,60.619,0,0,1,4.794-23.744,60.8,60.8,0,0,1,13.073-19.39,60.8,60.8,0,0,1,19.39-13.073A60.618,60.618,0,0,1-1897-27a60.619,60.619,0,0,1,23.744,4.794,60.8,60.8,0,0,1,19.39,13.073,60.8,60.8,0,0,1,13.073,19.39A60.62,60.62,0,0,1-1836,34a60.619,60.619,0,0,1-4.794,23.744,60.8,60.8,0,0,1-13.073,19.39,60.8,60.8,0,0,1-19.39,13.073A60.618,60.618,0,0,1-1897,95Zm0-112a51.058,51.058,0,0,0-51,51,51.057,51.057,0,0,0,51,51,51.058,51.058,0,0,0,51-51A51.058,51.058,0,0,0-1897-17Z" transform="translate(1998 1100)"/><path class="b" d="M-1845.551,104.291h0l-8.7-5.6a51.041,51.041,0,0,0,17.274-38.225A51.349,51.349,0,0,0-1883.36,9.673l.906-9.962a60.526,60.526,0,0,1,18.216,4.548,60.79,60.79,0,0,1,19.39,13.073,60.776,60.776,0,0,1,13.073,19.39,60.611,60.611,0,0,1,4.794,23.744,60.611,60.611,0,0,1-4.794,23.744,60.776,60.776,0,0,1-13.073,19.39c-.231.231-.468.464-.7.692Z" transform="translate(1988.982 1073.535)"/><path class="c" d="M-1837.028,36.978h0A51.156,51.156,0,0,0-1882.011,5.1V-4.912a60.554,60.554,0,0,1,21.424,4.75,60.8,60.8,0,0,1,19.39,13.072,60.8,60.8,0,0,1,12.876,18.931l-8.705,5.136Z" transform="translate(1985.332 1077.956)"/></g></svg>