<svg xmlns="http://www.w3.org/2000/svg" width="122" height="122.001" viewBox="0 0 122 122.001"><defs><style>.a{fill:#6a63ac;}.b{fill:#f8a9d3;}</style></defs><g transform="translate(-32 -390)"><path class="a" d="M-1897,95a60.616,60.616,0,0,1-23.744-4.794,60.8,60.8,0,0,1-19.39-13.073,60.8,60.8,0,0,1-13.073-19.39A60.618,60.618,0,0,1-1958,34a60.619,60.619,0,0,1,4.794-23.744,60.8,60.8,0,0,1,13.073-19.39,60.8,60.8,0,0,1,19.39-13.073A60.618,60.618,0,0,1-1897-27a60.619,60.619,0,0,1,23.744,4.794,60.8,60.8,0,0,1,19.39,13.073,60.8,60.8,0,0,1,13.073,19.39A60.62,60.62,0,0,1-1836,34a60.619,60.619,0,0,1-4.794,23.744,60.8,60.8,0,0,1-13.073,19.39,60.8,60.8,0,0,1-19.39,13.073A60.618,60.618,0,0,1-1897,95Zm0-112a51.058,51.058,0,0,0-51,51,51.057,51.057,0,0,0,51,51,51.058,51.058,0,0,0,51-51A51.058,51.058,0,0,0-1897-17Z" transform="translate(1990 417)"/><path class="b" d="M-1831.546,51.237h-10.01c.036-.775.054-1.571.054-2.365a51.058,51.058,0,0,0-51-51c-.33,0-.666,0-1,.01v-10c.364-.006.691-.008,1-.008a60.609,60.609,0,0,1,23.745,4.794,60.815,60.815,0,0,1,19.39,13.073,60.816,60.816,0,0,1,13.073,19.39,60.622,60.622,0,0,1,4.793,23.744c0,.785-.015,1.581-.045,2.364Z" transform="translate(1985.5 402.128)"/></g></svg>