<svg xmlns="http://www.w3.org/2000/svg" width="21" height="21" viewBox="0 0 21 21"><defs><style>.a{fill:none;stroke:#6a63ac;stroke-linecap:round;stroke-linejoin:round;stroke-width:2px;}</style></defs><g transform="translate(1 1)"><path class="a" d="M15.4,13.5h8.55a1.9,1.9,0,0,1,1.9,1.9v8.55a1.9,1.9,0,0,1-1.9,1.9H15.4a1.9,1.9,0,0,1-1.9-1.9V15.4A1.9,1.9,0,0,1,15.4,13.5Z" transform="translate(-6.85 -6.85)"/><path class="a" d="M5.85,15.35H4.9A1.9,1.9,0,0,1,3,13.45V4.9A1.9,1.9,0,0,1,4.9,3h8.55a1.9,1.9,0,0,1,1.9,1.9v.95" transform="translate(-3 -3)"/></g></svg>