<svg xmlns="http://www.w3.org/2000/svg" width="157" height="157" viewBox="0 0 157 157"><defs><style>.a{fill:#fff;}.b{fill:#f8a9d3;}.c{fill:#6a63ac;}</style></defs><g transform="translate(-109 -63)"><g transform="translate(-276 -273)"><circle class="a" cx="78.5" cy="78.5" r="78.5" transform="translate(385 336)"/><g transform="translate(409.104 376.596)"><g transform="translate(0)"><path class="b" d="M.432,21.935,36.9-.491,50.076,7.641V1.171h4.351v9.048l19.114,11.7H67.613L36.9,7.217,6.534,21.935Z" transform="translate(17.678 0.491)"/><path class="b" d="M.454.248H4.459v13.74H.454Z" transform="translate(85.364 56.101)"/><path class="b" d="M.454.248H4.459v13.74H.454Z" transform="translate(19.446 56.101)"/><path class="b" d="M-12.163,6.006V2.6l109.33-.045V5.807Z" transform="translate(12.163 70.326)"/></g></g></g><path class="c" d="M.946-20.167v2.709c2.279-.129,2.752-.129,2.752,1.806V-4.644c0,1.591-.3,1.892-1.849,1.892H1.2V0h9.933V-2.752H10.019c-1.462,0-1.634-.43-1.634-1.505v-4.6c0-6.493,2.838-8,3.827-8,1.118,0,1.118.946,1.118,1.935h3.4v-5.5a5.594,5.594,0,0,0-2.537-.6c-3.569,0-5.289,3.053-5.762,3.913H8.342a18.483,18.483,0,0,0-.387-3.612ZM37.754-9.933c.043-1.591.129-4.6-1.118-7.052a8.193,8.193,0,0,0-7.654-4.429c-6.622,0-9.976,5.547-9.976,11.4C19.006-5.5,21.242.645,28.767.645a13.744,13.744,0,0,0,8.514-2.709V-6.192c-.086.043-.3.215-.43.3a11.53,11.53,0,0,1-6.794,2.58c-3.225,0-5.977-2.322-5.891-6.622ZM24.3-13.33c.473-2.881,1.806-4.945,4.515-4.945,3.784,0,3.87,3.7,3.913,4.945Zm15.953-6.751v2.709c.215,0,.817-.043,1.333-.043,1.376,0,1.419.43,1.419,2.752v9.632c0,1.935,0,2.279-1.849,2.279H40.42V0h9.933V-2.752h-.86c-1.634,0-1.634-.258-1.634-2.279v-5.934c0-1.333,0-6.364,4.515-6.364,3.44,0,3.44,3.053,3.44,4.988v7.095c0,2.15,0,2.494-1.72,2.494h-.731V0H63.3V-2.752c-2.365,0-2.451,0-2.451-2.107v-8.213a15.011,15.011,0,0,0-.473-4.3c-1.333-3.44-4.73-3.827-6.192-3.827A6.845,6.845,0,0,0,47.9-17.716h-.086a11.545,11.545,0,0,0-.344-3.01Zm46.311-.645H79.722a11.852,11.852,0,0,0-4.128-.688c-5.934,0-8.815,3.354-8.815,7.826a6.947,6.947,0,0,0,4.214,6.665c-1.935.817-3.741,1.72-3.741,3.913A3.043,3.043,0,0,0,69.7-.043V.043c-2.623.473-4.6,2.279-4.6,4.644,0,4.128,4.73,5.074,10.277,5.074A16.834,16.834,0,0,0,83.119,8.3,6.578,6.578,0,0,0,86.6,2.58c0-5.16-5.246-5.418-7.525-5.5-.516,0-3.182-.129-3.7-.129-1.849-.086-3.311-.344-3.311-1.419,0-1.333,2.236-1.462,3.7-1.548,2.838-.172,3.956-.43,5.289-1.2a7.018,7.018,0,0,0,3.225-6.192,6.951,6.951,0,0,0-1.161-4.042h3.44ZM75.637-8.815c-2.924,0-3.956-2.58-3.956-4.73,0-.989.172-5.2,3.827-5.2,3.44,0,3.956,3.01,3.956,4.945C79.464-10.535,77.83-8.815,75.637-8.815ZM69.875,3.956c0-2.494,3.913-2.623,6.02-2.623,4.429,0,6.02.774,6.02,2.365,0,2.58-4.171,2.967-6.02,2.967C72.885,6.665,69.875,6.02,69.875,3.956ZM98.384.645c8.213,0,10.707-6.149,10.707-11.481,0-6.493-3.7-10.578-10.32-10.578-7.869,0-10.363,6.235-10.363,11.352C88.408-4.257,91.332.645,98.384.645Zm.387-18.619c5.246,0,5.246,6.235,5.246,7.353,0,1.2,0,7.869-5.246,7.869-4.644,0-5.375-5.289-5.375-7.525C93.4-13.545,94.557-17.974,98.771-17.974Z" transform="translate(132.054 152)"/></g></svg>