<svg xmlns="http://www.w3.org/2000/svg" xmlns:xlink="http://www.w3.org/1999/xlink" width="98" height="89" viewBox="0 0 98 89"><defs><style>.a,.f{fill:#fff;}.a{stroke:#707070;}.b{clip-path:url(#a);}.c{fill:#acdfeb;}.d{fill:#f4f3f3;}.e{fill:#dc2d50;}.g{fill:#362f88;}.h{fill:#141f55;}.i{fill:#ea536b;}.j{fill:#ee819a;}.k{fill:#3e4092;}.l{fill:#d9d5ff;}.m{fill:#6a63ac;}.n{fill:none;stroke:#6a63ac;stroke-linecap:round;stroke-linejoin:round;stroke-width:2px;}</style><clipPath id="a"><circle class="a" cx="42" cy="42" r="42" transform="translate(141 113)"/></clipPath></defs><g transform="translate(-141 -113)"><g class="b"><g transform="translate(141 113)"><path class="c" d="M84,42A42.012,42.012,0,0,1,45.449,83.859Q43.739,84,41.993,84t-3.456-.141A42,42,0,1,1,84,42Z"/><path class="d" d="M46.575,53.47h-11.1V68.363h11.1Z"/><path class="e" d="M56.972,38.729c-2.3,8.207-9.289,13.516-16.222,13.108a16.345,16.345,0,0,1-11.816-7.515,16.689,16.689,0,0,1-2.09-11.633c-.685-3.005-2.288-11.586,2.09-15.212,2.016-1.67,6.222-1.459,14.55-.966l7.2.427a7.383,7.383,0,0,1,6.939,7.717Z"/><path class="f" d="M41.02,55.423a11.9,11.9,0,0,1-11.9-11.9v-8.3a11.9,11.9,0,0,1,11.9-11.9h5.067a6.837,6.837,0,0,1,6.837,6.837V43.52a11.9,11.9,0,0,1-11.9,11.9Z"/><path class="e" d="M54.51,24.047c2.167,3.8,2.2,10.309-1.586,12.576-3.381,2.023-9.366.4-12.576-5-5.448,1.858-10.59-.625-11.779-4.243a7.8,7.8,0,0,1,2.868-7.966c2.627-2.1,5.806-1.7,9.582-1.222C46.472,18.88,51.96,19.574,54.51,24.047Z"/><path class="g" d="M70.01,73.3A41.83,41.83,0,0,1,45.465,83.868H38.544A41.8,41.8,0,0,1,13.8,73.119,14.645,14.645,0,0,1,28.4,59.564h7.086a5.55,5.55,0,0,0,11.082,0h5.945A18.019,18.019,0,0,1,70.01,73.3Z"/><path class="h" d="M35.644,38.5a.307.307,0,0,1,.072-.464,2.289,2.289,0,0,1,1.593-.3.3.3,0,0,1-.109.6,1.649,1.649,0,0,0-.62,0,1.674,1.674,0,0,0-.55.216.3.3,0,0,1-.385-.046Z"/><path class="h" d="M37.2,41.019a.639.639,0,1,0-.639-.639A.639.639,0,0,0,37.2,41.019Z"/><path class="h" d="M45.584,38.7a.3.3,0,0,0-.072-.465,2.246,2.246,0,0,0-.748-.295,2.306,2.306,0,0,0-.845,0,.3.3,0,0,0,.107.6,1.688,1.688,0,0,1,1.161.232.3.3,0,0,0,.4-.072Z"/><path class="h" d="M44.164,41.08a.6.6,0,1,0-.6-.6A.6.6,0,0,0,44.164,41.08Z"/><path class="i" d="M42.369,47.441a1.8,1.8,0,0,1-.732,1.268,2.587,2.587,0,0,1-2.111.439,2.028,2.028,0,0,1-1.684-1.707Z"/><path class="j" d="M41.638,48.709a2.588,2.588,0,0,1-2.111.439.773.773,0,0,1-.044-.265,1.033,1.033,0,0,1,1.089-.964,1.054,1.054,0,0,1,1.066.79Z"/><path class="k" d="M59.639,76.6V80.14a41.222,41.222,0,0,1-9.522,3.084V76.6Z"/></g></g><g transform="translate(-60 7)"><circle class="l" cx="22" cy="22" r="22" transform="translate(255 151)"/><path class="m" d="M19.59,13.925H15.336V9.67a.705.705,0,1,0-1.411,0v4.254H9.67a.705.705,0,0,0,0,1.411h4.254V19.59a.705.705,0,1,0,1.411,0V15.336H19.59a.705.705,0,1,0,0-1.411Z" transform="translate(272.705 148.428)"/><g transform="translate(259.407 158.558)"><path class="n" d="M25.262,21.782a2.16,2.16,0,0,1-2.16,2.16H3.66a2.16,2.16,0,0,1-2.16-2.16V9.9A2.16,2.16,0,0,1,3.66,7.74h4.32l2.16-3.24h6.481l2.16,3.24H23.1a2.16,2.16,0,0,1,2.16,2.16Z"/><path class="n" d="M20.641,17.82a4.32,4.32,0,1,1-4.32-4.32A4.32,4.32,0,0,1,20.641,17.82Z" transform="translate(-2.939 -2.519)"/></g></g></g></svg>