<svg xmlns="http://www.w3.org/2000/svg" width="32" height="32" viewBox="0 0 32 32"><defs><style>.a{fill:#6a63ac;}.b{fill:#fff;}</style></defs><g transform="translate(-172 -284)"><circle class="a" cx="16" cy="16" r="16" transform="translate(172 284)"/><path class="b" d="M18.425,14.782h0L13.571,9.928l4.854-4.854h0a.5.5,0,0,0,0-.707L16.132,2.074a.5.5,0,0,0-.707,0h0L10.571,6.928,5.717,2.074h0a.5.5,0,0,0-.707,0L2.717,4.367a.5.5,0,0,0,0,.707h0L7.571,9.928,2.717,14.782h0a.5.5,0,0,0,0,.707L5.01,17.782a.5.5,0,0,0,.707,0h0l4.854-4.854,4.854,4.854h0a.5.5,0,0,0,.707,0l2.293-2.293a.5.5,0,0,0,0-.707Z" transform="translate(177.929 290.572)"/></g></svg>