<svg xmlns="http://www.w3.org/2000/svg" width="17.312" height="17.311" viewBox="0 0 17.312 17.311"><defs><style>.a{fill:none;stroke:#6a63ac;}</style></defs><path class="a" d="M20.382,17.315a13.745,13.745,0,0,0-2.871-1.921c-.861-.413-1.176-.4-1.785.034-.507.366-.835.707-1.419.579a8.462,8.462,0,0,1-2.85-2.109,8.4,8.4,0,0,1-2.109-2.85c-.124-.588.217-.912.579-1.419.439-.609.452-.924.034-1.785A13.473,13.473,0,0,0,8.04,4.974c-.626-.626-.767-.49-1.112-.366a6.327,6.327,0,0,0-1.018.541A3.071,3.071,0,0,0,4.688,6.439c-.243.524-.524,1.5.907,4.047a22.582,22.582,0,0,0,3.97,5.3h0l0,0,0,0h0a22.67,22.67,0,0,0,5.3,3.97c2.548,1.431,3.523,1.15,4.047.907a3.019,3.019,0,0,0,1.291-1.223,6.327,6.327,0,0,0,.541-1.018C20.872,18.082,21.012,17.941,20.382,17.315Z" transform="translate(-4.013 -4.032)"/></svg>