<svg xmlns="http://www.w3.org/2000/svg" width="293.514" height="174.688" viewBox="0 0 293.514 174.688"><defs><style>.a{fill:#6a63ac;}.b{fill:#ffc0bb;}.c{fill:#333;}.d{fill:#daeef7;}.e{fill:#e87b50;}.e,.h,.n,.q{opacity:0.3;mix-blend-mode:multiply;isolation:isolate;}.f{fill:#f99893;}.g,.h{fill:#ff5b7e;}.i{fill:#07085b;}.j{fill:#fff;}.k{fill:#f46c0f;}.l{opacity:0.6;}.m{fill:#fc8d84;}.n,.t{fill:#02ccc0;}.o,.q{fill:#feb546;}.p{fill:#050735;}.r{fill:#752911;}.s{fill:#224887;}</style></defs><g transform="translate(-37.705 -637.312)"><path class="a" d="M2760.1,1170H2538.9a166.316,166.316,0,0,1,221.206,0l0,0h0Z" transform="translate(-2462 -358)"/><g transform="translate(3923.095 -2121.4) rotate(17)"><path class="b" d="M2836.143,1733.354l1.936,14.513,1.441,2.6,2.59-1.874-1.057-14.755Z" transform="translate(-5493.104 2097.434)"/><path class="c" d="M2787.932,1874.911l.418,3.636c.052.448-.2.854-.53.853l-11.444-.038a.834.834,0,0,1-.745-.537,1.59,1.59,0,0,1,.326-1.62c1.029-1.445,4.4-1.787,6.048-3.018l5.33.018C2787.633,1874.207,2787.886,1874.505,2787.932,1874.911Z" transform="translate(-5438.099 1969.63)"/><g transform="translate(-2657.704 3844.135)"><path class="d" d="M2830.527,1879.4h0a.245.245,0,0,0,.066-.3,2.21,2.21,0,0,0-2.351-1.469c-.083.014-.139.124-.125.237v0c.013.109.087.181.167.168a1.907,1.907,0,0,1,2.055,1.275C2830.378,1879.407,2830.458,1879.442,2830.527,1879.4Z" transform="translate(-2828.115 -1877.603)"/></g><path class="e" d="M2875.367,1899.122c.911-2.933,2.466-3.252,3.315-3.182l.269,2.339c.052.448-.2.854-.53.854Z" transform="translate(-5528.699 1949.899)"/><path class="b" d="M3094.4,1753.077l4.8,16.007,1.188,3.329,3.895.959-4.947-20.6Z" transform="translate(-5728.837 2083.051)"/><path class="c" d="M3088.211,1874.911l.418,3.636c.051.448-.2.854-.53.853l-11.443-.038a.833.833,0,0,1-.745-.537,1.591,1.591,0,0,1,.325-1.62c1.029-1.445,4.4-1.787,6.047-3.018l5.331.018C3087.912,1874.207,3088.165,1874.505,3088.211,1874.911Z" transform="matrix(0.914, 0.407, -0.407, 0.914, -4682.984, 887.789)"/><g transform="matrix(0.914, 0.407, -0.407, 0.914, -2631.079, 3853.257)"><path class="d" d="M3130.806,1879.4h0a.245.245,0,0,0,.066-.3,2.21,2.21,0,0,0-2.351-1.469c-.083.014-.139.124-.125.237v0c.014.109.088.181.167.168a1.907,1.907,0,0,1,2.055,1.275C3130.657,1879.407,3130.737,1879.442,3130.806,1879.4Z" transform="translate(-3128.394 -1877.603)"/></g><g transform="matrix(0.914, 0.407, -0.407, 0.914, -2632.354, 3853.196)"><path class="d" d="M3117.944,1884.414h0a.245.245,0,0,0,.066-.3,2.21,2.21,0,0,0-2.351-1.469c-.083.014-.139.124-.125.237v0c.013.11.087.181.167.168a1.906,1.906,0,0,1,2.055,1.274C3117.8,1884.421,3117.875,1884.456,3117.944,1884.414Z" transform="translate(-3115.532 -1882.617)"/></g><g transform="matrix(0.914, 0.407, -0.407, 0.914, -2633.542, 3853.141)"><path class="d" d="M3105.982,1889.092h0a.245.245,0,0,0,.066-.3,2.21,2.21,0,0,0-2.351-1.469c-.083.014-.139.124-.125.237v0c.013.11.087.182.167.168a1.907,1.907,0,0,1,2.055,1.275C3105.833,1889.1,3105.912,1889.134,3105.982,1889.092Z" transform="translate(-3103.569 -1887.295)"/></g><path class="c" d="M2746,1226.753s-12.424,15.806-11.706,20,9.1,32.812,9.1,32.812,5.628.718,8.383,0c0,0-4.67-29.22-4.67-31.136s4.67-6.586,4.67-6.586-2.275,5.628.719,13.532,17.982,37.473,17.982,37.473,5.758,1.59,6-.326c0,0-12.244-38.7-12-40.74s7.425-24.429,7.425-24.429l-2.515-3.952Z" transform="translate(-5400.647 2560.208)"/><path d="M2922.906,1288.113q.4.543.787,1.095c.26.366.511.738.766,1.108l.749,1.118.737,1.126.051.078-.032.091c-.233.659-.457,1.322-.7,1.978l-.358.986-.368.982c-.249.654-.5,1.306-.761,1.955s-.527,1.3-.811,1.938c.185-.676.388-1.346.6-2.014s.425-1.333.646-2l.335-.994.346-.99c.227-.661.472-1.316.708-1.974l.019.168-.7-1.149-.688-1.157c-.225-.389-.452-.775-.672-1.167S2923.118,1288.51,2922.906,1288.113Z" transform="translate(-5571.839 2501.48)"/><path class="b" d="M2986.251,750.482l.6,7.106-6.271-.3L2981.3,751Z" transform="translate(-5624.177 2989.368)"/><path class="f" d="M2984.678,753.988l.344-2.993,4.948-.514.208,2.461A4.978,4.978,0,0,1,2984.678,753.988Z" transform="translate(-5627.896 2989.368)"/><path class="g" d="M2784.193,438.762c-.24-3.593-7.824-21.715-7.824-21.715s-4.231.319-6.067,3.114c0,0,4.95,14.69,5.269,17.164s-1.836,15.009-3.513,15.887l-3.034-.24s-2.156,2.714-6.626.08c0,0-5.988.958-8.223,3.353,0,0-7.285,7.4-7.644,6.746s1.437-16.346,1.437-16.346l-5.688.539s-3.2,23.156-1.2,24.13c3.563,1.736,13.032-4.737,13.032-4.737.007,1.413.1,2.638.061,3.4-.9,17.7-3.353,24.669-3.353,24.669s13.013,3.752,26.665.8c0,0,4.152-23.471,2.954-35.287C2780.441,460.318,2784.433,442.355,2784.193,438.762Z" transform="translate(-5406.242 3291.953)"/><path class="h" d="M2854.246,912.916a44.76,44.76,0,0,1-1.448,6.295s13.013,3.752,26.665.8c0,0,4.151-23.471,2.954-35.287C2882.417,884.722,2877.073,908.416,2854.246,912.916Z" transform="translate(-5508.218 2867.549)"/><g transform="translate(-2648.92 3723.464)"><path class="i" d="M2937.707,619.914l-.489,4.134,2.825-4.9s-1.611-1.435-1.787-1.129A15.25,15.25,0,0,0,2937.707,619.914Z" transform="translate(-2935.907 -613.854)"/><g transform="translate(0 3.722)"><path class="f" d="M2925.557,673.46a1.286,1.286,0,1,1-1.508-1.327A1.438,1.438,0,0,1,2925.557,673.46Z" transform="translate(-2923.055 -666.704)"/><path class="b" d="M2937.984,623.815a12.392,12.392,0,0,1-.006-3.155c.024-.2.035-.41.044-.616a6.7,6.7,0,1,1,13.245,1.673,1.448,1.448,0,0,1,1.3.176,2.02,2.02,0,0,1-2.331,3.179,1.282,1.282,0,0,1-.253-.249,6.283,6.283,0,0,1-7.32,4.313A6.175,6.175,0,0,1,2937.984,623.815Z" transform="translate(-2936.508 -613.603)"/><path class="f" d="M2983.708,681.916c-.117.366-.222.726-.341,1.073a2.5,2.5,0,0,1-.47.9l-.039.031a.481.481,0,0,1-.048.039.9.9,0,0,0-.137.111.757.757,0,0,0-.192.311.791.791,0,0,0,.113.676,1.293,1.293,0,0,0,1.048.53,1.594,1.594,0,0,1-.787-.68.509.509,0,0,1-.029-.408.426.426,0,0,1,.113-.157.56.56,0,0,1,.083-.065l.063-.048.072-.057a1.5,1.5,0,0,0,.342-.54,3.153,3.153,0,0,0,.158-.569A4.006,4.006,0,0,0,2983.708,681.916Z" transform="translate(-2976.952 -675.595)"/><path class="c" d="M3017.534,689.3a.585.585,0,1,0,.7-.437A.585.585,0,0,0,3017.534,689.3Z" transform="translate(-3008.779 -681.886)"/><path class="c" d="M2963.858,680.443a.585.585,0,1,0,.7-.437A.585.585,0,0,0,2963.858,680.443Z" transform="translate(-2960.069 -673.848)"/><path class="i" d="M3013.937,674.54a6.01,6.01,0,0,1,.879.035,2.961,2.961,0,0,1,.787.2,2.747,2.747,0,0,1,.7.412c.118.077.21.186.325.278s.2.212.328.315a2.462,2.462,0,0,0-.144-.446,2,2,0,0,0-.253-.4,1.89,1.89,0,0,0-.777-.582,1.973,1.973,0,0,0-.96-.139A1.8,1.8,0,0,0,3013.937,674.54Z" transform="translate(-3005.528 -668.597)"/><path class="i" d="M2954.326,665.249a1.8,1.8,0,0,0-.711-.612,1.973,1.973,0,0,0-.948-.2,1.884,1.884,0,0,0-.931.275,1.994,1.994,0,0,0-.378.289,2.46,2.46,0,0,0-.29.368c.152-.053.281-.126.417-.181s.265-.116.4-.147a2.741,2.741,0,0,1,.8-.144,2.969,2.969,0,0,1,.808.083A6.063,6.063,0,0,1,2954.326,665.249Z" transform="translate(-2948.475 -659.729)"/></g><path class="i" d="M2935.047,575.663s-1.91-.475.529-1.513,8.3-1.406,11.212,1.367c0,0,1.095-1.26,1.985-.633s-1.024,1.165-1.024,1.165,1.273.317,1.483,1.045c.155.538-.623.339-1.04.2.684.325,2.946,2.844-.008,8.006-.461-.247-2.112-5.1-2.112-5.1s-7.409,1.745-5.976-.9c0,0-7.8,2.262-5.9-.891C2934.2,578.4,2931.584,577.866,2935.047,575.663Z" transform="translate(-2932.31 -573.379)"/><path class="i" d="M3055.623,627.291a1.26,1.26,0,0,0-1.176-.045c-.7.291-1.085,1.9-1.085,1.9s-3.219.985-.83-6.36c2.542-7.814,2.091,1.276,2.091,1.276Z" transform="translate(-3039.752 -615.336)"/><path class="j" d="M2976.147,729.215a1.584,1.584,0,0,0,3.012.511Z" transform="translate(-2971.235 -714.797)"/></g></g><path class="b" d="M2772.215,672.008a.229.229,0,0,1-.35-.2c.042-1.411.146-5.853-.21-5.946-.424-.11-.614,3.857-1,3.975s-.106-3.747-.578-3.791-.612,3.488-.818,3.539-.433-3.348-.7-3.541-.461,3.465-.693,3.6-.934-2.437-1.162-2.4-.385.02-.461,6.258v2.943l1.69.25,3.366.709s3.784-6.22,3.678-6.534S2774.607,670.538,2772.215,672.008Z" transform="translate(-2483.743 -0.562)"/><g transform="translate(2946.193 -3080.228)"><path class="d" d="M2775.581,1925.809l13.127.044a.114.114,0,0,0,.114-.114l0-1.117a.114.114,0,0,0-.113-.114l-13.128-.044a.114.114,0,0,0-.114.114l0,1.116A.113.113,0,0,0,2775.581,1925.809Z" transform="translate(-5458.345 1931.375)"/><g transform="translate(-2679.091 3851.858)"><path class="d" d="M2817.733,1884.465h0a.252.252,0,0,0,.068-.3,2.272,2.272,0,0,0-2.418-1.511c-.085.014-.143.127-.129.243v0c.013.113.09.187.172.173a1.961,1.961,0,0,1,2.114,1.311C2817.581,1884.473,2817.662,1884.509,2817.733,1884.465Z" transform="translate(-2815.253 -1882.617)"/></g><g transform="translate(-2680.229 3852.303)"><path class="d" d="M2805.771,1889.144h0a.253.253,0,0,0,.068-.3,2.273,2.273,0,0,0-2.418-1.511c-.085.015-.143.127-.129.243v0c.014.113.09.187.172.173a1.961,1.961,0,0,1,2.114,1.311C2805.618,1889.15,2805.7,1889.187,2805.771,1889.144Z" transform="translate(-2803.29 -1887.295)"/></g><path class="b" d="M2528.948,1133.137a.143.143,0,0,1,.228-.108c.708.525,2.945,2.164,3.119,2.014.208-.178-1.756-1.691-1.677-1.932s1.957,1.283,2.147,1.057-1.567-1.558-1.52-1.681,1.869.973,2.061.907-1.61-1.472-1.595-1.638,1.581.391,1.645.262.127-.2-3.04-2.469l-1.285-.838-1.418-.118-.766,1.53s1.5,4.781,1.7,4.838S2528.847,1134.886,2528.948,1133.137Z" transform="translate(-5233.381 2651.518)"/><path class="b" d="M2338.527,1407.19l15.049,44.507s5.167,4.472,4.942,1.862c-.052-.607-.815-4.923-.88-5.72-.545-6.7-2.034-19.839-3.23-24.349-1.294-4.878-4.365-12.983-4.365-12.983Z" transform="translate(-5062.98 2399.429)"/><path class="b" d="M2448.2,1874.359l4.7-3.9,4.826,2.057-1.4,1.325-5.283,1.523s-2.143.028-2.244-.021A7.224,7.224,0,0,1,2448.2,1874.359Z" transform="translate(-5162.218 1980.245)"/><path class="i" d="M2434.476,1893.918l-1.186,1.024a.722.722,0,0,0,.565,1.266l9.883-1.351a.638.638,0,0,0,.545-.717l-.283-2.068C2437.7,1895.066,2435.344,1894.739,2434.476,1893.918Z" transform="translate(-5148.493 1960.686)"/><g transform="translate(-2745.625 3787.092)"><path class="b" d="M2122.393,1201.964s-7.246,23.017-6.28,26.207c.619,2.042,12.168,34.151,12.352,34.092s4.8-1.411,4.8-1.411-8.572-31.377-8.153-33.386,9.11-20.559,9.11-20.559Z" transform="translate(-2116.024 -1201.964)"/><path class="b" d="M2202.709,1803.877l3.195-5.494,5.451.284-.891,1.794-4.618,3.377s-2.083.794-2.2.782A7.485,7.485,0,0,1,2202.709,1803.877Z" transform="translate(-2194.46 -1741.632)"/><path class="i" d="M2194.2,1806.583l-.793,1.424a.751.751,0,0,0,1,1.035l9.174-4.853a.663.663,0,0,0,.276-.9l-1.016-1.92C2197.766,1806.55,2195.343,1807.075,2194.2,1806.583Z" transform="translate(-2185.952 -1744.337)"/><path class="b" d="M2194.287,1469.976a208.336,208.336,0,0,1,6.525,27.35l-8.337-17.979Z" transform="translate(-2185.2 -1444.474)"/></g><g transform="translate(-2736.435 3722.978)"><path class="k" d="M2216.456,556.1s-4.762-2.381-3.7-9.117c.335-2.124,2.344-2.859,1.993-5.685s-1.26-6.3,1.657-9.5,5.605-3.579,9.254-3.634c3.805-.057,10.434,2.547,12.032,7.164s7.494.649,13.717,5.009,4.354,11.3,2.737,14.877c-4.978,11.02-14.086,12.805-25.1,10.08s-1.972-4.675-2.073-4.847S2216.456,556.1,2216.456,556.1Z" transform="translate(-2212.602 -528.17)"/><g transform="translate(5.503 3.721)"><path class="b" d="M2323.217,703.851l-.328-3.9,4.405.336,1.236,4.831c.15.573-1.674.856-2.211,1.1-.625.29-1.208-1.3-2.178-1.421A1.07,1.07,0,0,1,2323.217,703.851Z" transform="translate(-2317.898 -687.325)"/><g class="l" transform="translate(4.992 12.624)"><path class="m" d="M2323.117,702.659l-.228-2.71,4.532.81.257.991A7.849,7.849,0,0,1,2323.117,702.659Z" transform="translate(-2322.89 -699.949)"/></g><path class="b" d="M2270.552,577.053a11.713,11.713,0,0,1-.05-2.99c.02-.194.028-.389.033-.584a6.359,6.359,0,1,1,12.595,1.4,1.376,1.376,0,0,1,1.233.148,1.916,1.916,0,0,1-2.167,3.045,1.2,1.2,0,0,1-.244-.232,5.964,5.964,0,0,1-6.887,4.19A5.855,5.855,0,0,1,2270.552,577.053Z" transform="translate(-2270.431 -567.281)"/><path class="c" d="M2336.5,642.25a.555.555,0,1,0,.66-.424A.554.554,0,0,0,2336.5,642.25Z" transform="translate(-2330.198 -634.722)"/><path class="c" d="M2286.837,634.823a.555.555,0,1,0,.66-.424A.554.554,0,0,0,2286.837,634.823Z" transform="translate(-2285.265 -628.001)"/><path class="k" d="M2332.2,629.346a5.223,5.223,0,0,1,.83-.088,2.743,2.743,0,0,1,.772.091,2.543,2.543,0,0,1,.709.308l.088.05c.029.017.054.04.083.058l.169.118c.113.081.214.178.341.261a2.444,2.444,0,0,0-.2-.4,2.012,2.012,0,0,0-.291-.342,1.806,1.806,0,0,0-.8-.445,1.9,1.9,0,0,0-.915-.015A1.752,1.752,0,0,0,2332.2,629.346Z" transform="translate(-2326.318 -623.033)"/><path class="k" d="M2279.629,621.111a1.749,1.749,0,0,0-.619-.633,1.89,1.89,0,0,0-.87-.278,1.809,1.809,0,0,0-.9.166,2.024,2.024,0,0,0-.385.231,2.443,2.443,0,0,0-.313.312c.146-.038.274-.1.407-.138l.2-.058c.033-.008.064-.022.1-.029l.1-.019a2.546,2.546,0,0,1,.771-.064,2.74,2.74,0,0,1,.76.161A5.188,5.188,0,0,1,2279.629,621.111Z" transform="translate(-2275.959 -615.161)"/><path class="f" d="M2305.613,630.742a4.254,4.254,0,0,1-.065,1.194,3.258,3.258,0,0,1-.168.59,1.554,1.554,0,0,1-.355.557l-.074.058-.066.049a.6.6,0,0,0-.088.069.448.448,0,0,0-.119.167.533.533,0,0,0,.031.432,1.649,1.649,0,0,0,.825.706,1.351,1.351,0,0,1-1.083-.559.814.814,0,0,1-.113-.7.648.648,0,0,1,.081-.172.74.74,0,0,1,.118-.146.937.937,0,0,1,.141-.114.52.52,0,0,0,.051-.04l.041-.033a1.487,1.487,0,0,0,.283-.42,5.1,5.1,0,0,0,.211-.522C2305.385,631.5,2305.494,631.123,2305.613,630.742Z" transform="translate(-2301.078 -624.703)"/></g><path class="k" d="M2310.375,559.054s2.933,6.1,8.9,7.009l1-4.278s-1.975-2.281-2.232-2.574a39.04,39.04,0,0,0-4.259-1.673l-3.334.48Z" transform="translate(-2301.072 -554.744)"/></g><path class="b" d="M2369.46,792.489s7.071,24.028,14.05,32.649l-2.719,1.662s-13.219-17.488-15.271-25.124S2369.46,792.489,2369.46,792.489Z" transform="translate(-5087.017 2955.64)"/><path class="i" d="M2098.684,736.923s-18.227-.388-14.9,15.007c0,0,1.478,5.3,1.232,7.02s-2.586,6.38-2.34,10.764-13.547,11.281-14.656,15.592c0,0,4.8,2.833,6.774,5.3s6.528,12.932,20.813,13.3,20.075,1.108,20.075,1.108-.616-5.172-7.143-12.808-5.049-28.819-10.838-33.991C2097.7,758.211,2104.965,738.05,2098.684,736.923Z" transform="translate(-4818.211 3005.919)"/><path class="n" d="M2246.681,796.268c-6.527-7.636-5.049-28.819-10.838-33.991,0,0,6.384-17.714,2.011-20.861,0,0-5.953,16.92-8.662,19.383,0,0,5,10.1,5.27,15.025s-3.669,11.642-1.575,15.612,3.93,18.053-12.2,12.3a22.322,22.322,0,0,0,13.06,4.227c14.286.369,20.075,1.108,20.075,1.108S2253.209,803.9,2246.681,796.268Z" transform="translate(-4956.356 3001.854)"/><path class="b" d="M2080.182,665.451s5.819,14.272,6.8,14.6,9.2-2.748,12.48-4.781,7.143-3.688,8.375-2-2.3,10.391-18.227,12.608c0,0-6.076,1.807-8.7-5.911a83.083,83.083,0,0,1-3.5-14.817Z" transform="translate(-4826.71 3070.86)"/><g transform="translate(-2733.583 3763.807)"><path class="g" d="M2248.115,959.029a30.369,30.369,0,0,1-5.142-.394.484.484,0,0,1-.388-.586v0a.485.485,0,0,1,.555-.369,37.8,37.8,0,0,0,13.008-.412.486.486,0,0,1,.569.379h0a.484.484,0,0,1-.381.573A43.466,43.466,0,0,1,2248.115,959.029Zm-5.533-.964.108-.473h0Z" transform="translate(-2242.573 -957.257)"/></g><path class="j" d="M2306.466,681.779a1.993,1.993,0,0,1-3.844-.012Z" transform="translate(-5030.491 3055.827)"/></g><g transform="translate(1508.681 -3770.94) rotate(-19)"><path class="b" d="M1714.488,1733.354l-1.45,14.42-2.077,3.455-3.084-3.446,1.482-13.928Z" transform="translate(-4512.769 2103.096)"/><path class="d" d="M1710.007,1925.831l-13.337.044a.116.116,0,0,1-.116-.115l0-1.134a.115.115,0,0,1,.115-.116l13.337-.045a.116.116,0,0,1,.116.115l0,1.134A.116.116,0,0,1,1710.007,1925.831Z" transform="translate(-4502.537 1930.459)"/><path class="o" d="M1698.681,1874.943l-.437,3.8c-.054.469.209.893.553.892l11.956-.04a.871.871,0,0,0,.779-.561,1.661,1.661,0,0,0-.34-1.692c-1.076-1.51-4.594-1.867-6.318-3.153l-5.569.018C1698.994,1874.208,1698.73,1874.519,1698.681,1874.943Z" transform="translate(-4504.062 1975.876)"/><g transform="translate(-2800.118 3850.394)"><path class="d" d="M1757.362,1879.48h0a.256.256,0,0,1-.069-.309,2.309,2.309,0,0,1,2.456-1.535c.086.015.145.129.131.247v0c-.014.114-.091.189-.175.176a1.992,1.992,0,0,0-2.147,1.332C1757.517,1879.488,1757.434,1879.524,1757.362,1879.48Z" transform="translate(-1757.269 -1877.603)"/></g><g transform="translate(-2798.874 3850.879)"><path class="d" d="M1770.224,1884.495h0a.256.256,0,0,1-.069-.309,2.309,2.309,0,0,1,2.457-1.535c.086.015.145.129.131.247v0c-.014.115-.091.19-.175.176a1.992,1.992,0,0,0-2.147,1.331C1770.379,1884.5,1770.3,1884.539,1770.224,1884.495Z" transform="translate(-1770.131 -1882.617)"/></g><g transform="translate(-2797.718 3851.331)"><path class="d" d="M1782.187,1889.173h0a.256.256,0,0,1-.069-.309,2.309,2.309,0,0,1,2.456-1.535c.086.015.145.129.131.247v0c-.014.115-.091.189-.175.176a1.992,1.992,0,0,0-2.147,1.332C1782.342,1889.18,1782.259,1889.217,1782.187,1889.173Z" transform="translate(-1782.094 -1887.295)"/></g><path class="e" d="M1701.989,1899.265c-.952-3.065-2.577-3.4-3.464-3.324l-.281,2.444c-.054.468.209.893.553.892Z" transform="translate(-4504.062 1956.235)"/><path class="b" d="M1406.729,1755.935l-3.624,15.676-5.2.9,6.431-17.4Z" transform="translate(-4231.051 2084.456)"/><path class="d" d="M1398.6,1925.831l-13.337.044a.116.116,0,0,1-.116-.115l0-1.134a.115.115,0,0,1,.115-.116l13.337-.045a.116.116,0,0,1,.116.115l0,1.134A.116.116,0,0,1,1398.6,1925.831Z" transform="translate(-4720.185 2425.713) rotate(-17)"/><path class="o" d="M1387.28,1874.943l-.437,3.8c-.054.469.21.893.554.892l11.956-.04a.871.871,0,0,0,.779-.561,1.661,1.661,0,0,0-.34-1.692c-1.076-1.51-4.594-1.867-6.318-3.153l-5.569.018C1387.593,1874.208,1387.328,1874.519,1387.28,1874.943Z" transform="matrix(0.951, -0.309, 0.309, 0.951, -4732.505, 2503.301)"/><g transform="translate(-2828.17 3855.33)"><path class="d" d="M1445.96,1879.48h0a.256.256,0,0,1-.069-.309,2.309,2.309,0,0,1,2.456-1.535c.086.015.145.129.131.247v0c-.014.114-.091.189-.175.176a1.992,1.992,0,0,0-2.148,1.332C1446.116,1879.488,1446.032,1879.524,1445.96,1879.48Z" transform="translate(-1445.868 -1877.603)"/></g><g transform="translate(-2826.927 3855.815)"><path class="d" d="M1458.823,1884.495h0a.256.256,0,0,1-.069-.309,2.309,2.309,0,0,1,2.456-1.535c.086.015.145.129.131.247v0c-.014.115-.091.19-.175.176a1.992,1.992,0,0,0-2.147,1.331C1458.978,1884.5,1458.895,1884.539,1458.823,1884.495Z" transform="translate(-1458.73 -1882.617)"/></g><g transform="translate(-2825.771 3856.267)"><path class="d" d="M1470.785,1889.173h0a.256.256,0,0,1-.069-.309,2.309,2.309,0,0,1,2.456-1.535c.086.015.145.129.131.247v0c-.014.115-.091.189-.175.176a1.992,1.992,0,0,0-2.147,1.332C1470.94,1889.18,1470.857,1889.217,1470.785,1889.173Z" transform="translate(-1470.692 -1887.295)"/></g><path class="b" d="M1863.168,428.833a.176.176,0,0,0,.269-.154c-.032-1.085-.112-4.5.162-4.569.326-.084.472,2.964.771,3.054s.082-2.88.445-2.914.47,2.681.628,2.72.333-2.573.534-2.721.354,2.663.532,2.765.718-1.873.893-1.846.3.015.354,4.809l-.058,1.889-.879,1.517-2.086-.3s-3.772-4.884-3.69-5.125S1861.331,427.7,1863.168,428.833Z" transform="translate(-4651.13 3285.78)"/><path class="b" d="M1419.1,431.852a.176.176,0,0,1-.269-.154c.033-1.085.113-4.5-.161-4.569-.326-.084-.472,2.964-.771,3.055s-.081-2.88-.444-2.914-.47,2.681-.629,2.72-.333-2.573-.534-2.721-.354,2.663-.532,2.765-.718-1.873-.893-1.846-.3.015-.354,4.81l.057,1.888.879,1.517,2.086-.3s3.772-4.884,3.69-5.125S1420.935,430.723,1419.1,431.852Z" transform="translate(-4247.759 3283.053)"/><path class="i" d="M1604.946,606.582s-1.562-6.555,2.061-9.042a9.554,9.554,0,0,1,10.111-.789c2.633,1.453,4.232,6.579,3.071,9.524l-8.728-2.737Z" transform="translate(-4419.486 3130.811)"/><path class="b" d="M1659.429,774.06l-.969-6.091-4.835-.29-.282,6.938S1657.618,775.208,1659.429,774.06Z" transform="translate(-4463.506 2975.421)"/><path class="f" d="M1660.646,770.866l-.461-2.9-4.835-.29-.1,2.4A4.847,4.847,0,0,0,1660.646,770.866Z" transform="translate(-4465.231 2975.421)"/><path class="f" d="M1745.934,703.394a1.337,1.337,0,1,0,1.844-.981A1.495,1.495,0,0,0,1745.934,703.394Z" transform="translate(-4547 3034.457)"/><path class="b" d="M1607.574,638.737a12.9,12.9,0,0,0,.761-3.191c.025-.213.062-.424.1-.634a6.967,6.967,0,1,0-13.8-1.479,1.505,1.505,0,0,0-1.354-.133,2.1,2.1,0,0,0,1.6,3.775,1.329,1.329,0,0,0,.316-.191,6.533,6.533,0,0,0,6.374,6.116A6.42,6.42,0,0,0,1607.574,638.737Z" transform="translate(-4408.43 3102.857)"/><path class="f" d="M1696.413,698.281c.031.4.051.787.088,1.168a2.6,2.6,0,0,0,.26,1.025l.032.041a.554.554,0,0,0,.039.051.933.933,0,0,1,.112.146.788.788,0,0,1,.12.361.823.823,0,0,1-.276.657,1.344,1.344,0,0,1-1.188.286,1.657,1.657,0,0,0,.959-.5.528.528,0,0,0,.127-.406.441.441,0,0,0-.076-.186.6.6,0,0,0-.068-.085l-.053-.064-.059-.075a1.554,1.554,0,0,1-.216-.628,3.249,3.249,0,0,1-.024-.614A4.176,4.176,0,0,1,1696.413,698.281Z" transform="translate(-4501.679 3038.111)"/><path class="i" d="M1656.353,684.109a6.252,6.252,0,0,0-.9-.175,3.08,3.08,0,0,0-.845.018,2.853,2.853,0,0,0-.8.25c-.138.05-.257.138-.4.2s-.257.166-.407.24a2.561,2.561,0,0,1,.252-.417,2.078,2.078,0,0,1,.353-.347,1.964,1.964,0,0,1,.926-.4,2.054,2.054,0,0,1,1,.089A1.871,1.871,0,0,1,1656.353,684.109Z" transform="translate(-4463.202 3051.505)"/><path class="i" d="M1715.458,687.457a1.871,1.871,0,0,1,.866-.449,2.051,2.051,0,0,1,1.008.02,1.963,1.963,0,0,1,.877.5,2.08,2.08,0,0,1,.313.383,2.55,2.55,0,0,1,.205.442c-.141-.09-.253-.194-.378-.283s-.24-.181-.372-.245a2.853,2.853,0,0,0-.771-.336,3.088,3.088,0,0,0-.838-.109A6.273,6.273,0,0,0,1715.458,687.457Z" transform="translate(-4519.618 3048.342)"/><path class="i" d="M1610.216,618.483a1.061,1.061,0,0,0-.708-.317l.172-2.123.654-1.282s2.569-3.453,2.659-3.539,2.057-1.207,2.178-1.265,2.885.347,2.885.347,4.854-1.014,4.045,1.53-4.35,3.892-4.533,3.78a4.227,4.227,0,0,0,.626-2.189C1615.7,616.159,1610.955,618.179,1610.216,618.483Z" transform="translate(-4423.91 3117.902)"/><path class="j" d="M1687.23,745.98a1.811,1.811,0,0,1-3.492.092Z" transform="translate(-4490.964 2995.023)"/><path class="i" d="M1429.241,1201.454s1.126,25.712,1.5,26.838-15.859,37.732-14.921,38.671,2.142,0,7.96-1.123c0,0,20.661-28.728,21.036-40.739v35.1s5.255,2.252,7.882,0c0,0,7.945-36.6,2.752-58.179l-10.26-4.5Z" transform="translate(-4250.179 2587.138)"/><path class="p" d="M1696.552,1260.934c.233,1.777.414,3.56.555,5.346.077.893.13,1.787.191,2.681s.1,1.789.135,2.685.057,1.792.078,2.688c.006.9.022,1.793,0,2.69a46.968,46.968,0,0,1-.336,5.368q.011-.673.034-1.343c.006-.447,0-.9,0-1.342s-.008-.894-.01-1.341l-.006-.67-.016-.671c-.036-1.787-.1-3.575-.172-5.362s-.152-3.574-.232-5.362l-.12-2.682Z" transform="translate(-4502.539 2529.848)"/><path class="o" d="M1402.732,540.261s-.375,26.525,1.5,32.03c0,0,19.018,2.627,27.276-1.376,0,0-3.879-13.388-2.377-19.268s2.377-10.76,2.377-10.76,10.635-15.24,11.385-23.635.751-18.154.751-18.154a20.77,20.77,0,0,0-6.006,0s-1,14.532-1.752,16.524-8.258,13.629-8.258,13.629l-5.568-.062a4.174,4.174,0,0,1-5.943.375s-5.693.876-6.068.876-8.57-4-9.446-5.63-4-11.135-3.128-24.586a10.938,10.938,0,0,0-4.942-.438s-3.065,20.457-1.314,26.379S1402.732,540.261,1402.732,540.261Z" transform="translate(-4226.235 3218.241)"/><path class="q" d="M1411.67,537.366c-.842.121-1.5.21-1.619.21-.375,0-8.57-4-9.446-5.63s-4-11.135-3.128-24.586a10.938,10.938,0,0,0-4.942-.438s-3.065,20.457-1.314,26.379,11.511,14.1,11.511,14.1-.375,26.525,1.5,32.03c0,0,19.018,2.627,27.276-1.376,0,0-.152-.524-.383-1.407C1417.44,567.583,1412.978,550.432,1411.67,537.366Z" transform="translate(-4226.235 3211.104)"/><path class="c" d="M1660.59,706.607a1.677,1.677,0,0,0,2.759-.043A3.437,3.437,0,0,1,1660.59,706.607Z" transform="translate(-4470.053 3030.629)"/><path class="c" d="M1714.484,705.14a1.677,1.677,0,0,0,2.757-.1A3.438,3.438,0,0,1,1714.484,705.14Z" transform="translate(-4518.738 3032.01)"/></g><g transform="translate(3056.577 -3087.262)"><path class="b" d="M1111.508,1733.355l2.784,14.156-2.039,3.392-3.028-3.383-2.876-12.568Z" transform="translate(-3997.228 2104.386)"/><path class="d" d="M1138.54,1925.806l-13.093.044a.114.114,0,0,1-.114-.113l0-1.114a.114.114,0,0,1,.113-.114l13.093-.044a.114.114,0,0,1,.114.113l0,1.114A.113.113,0,0,1,1138.54,1925.806Z" transform="translate(-4014.407 1931.412)"/><path class="c" d="M1127.453,1874.929l-.429,3.729c-.053.46.206.876.543.875l11.737-.039a.855.855,0,0,0,.765-.551,1.631,1.631,0,0,0-.334-1.661c-1.056-1.482-4.51-1.833-6.2-3.1l-5.467.018C1127.76,1874.207,1127.5,1874.513,1127.453,1874.929Z" transform="translate(-4015.935 1976.918)"/><g transform="translate(-2883.315 3851.43)"><path class="d" d="M1186.14,1879.446h0a.252.252,0,0,1-.068-.3,2.267,2.267,0,0,1,2.411-1.507c.085.015.142.127.128.243v0c-.014.112-.09.186-.172.172a1.956,1.956,0,0,0-2.108,1.307C1186.293,1879.453,1186.211,1879.489,1186.14,1879.446Z" transform="translate(-1186.049 -1877.603)"/></g><g transform="translate(-2882.094 3851.906)"><path class="d" d="M1199,1884.461h0a.252.252,0,0,1-.068-.3,2.267,2.267,0,0,1,2.411-1.507c.085.014.143.127.129.243v0c-.014.112-.09.186-.172.173a1.955,1.955,0,0,0-2.108,1.307C1199.155,1884.468,1199.073,1884.5,1199,1884.461Z" transform="translate(-1198.912 -1882.617)"/></g><g transform="translate(-2880.959 3852.35)"><path class="d" d="M1210.965,1889.139h0a.252.252,0,0,1-.068-.3,2.267,2.267,0,0,1,2.411-1.507c.085.014.142.127.128.243v0c-.014.113-.09.186-.172.173a1.955,1.955,0,0,0-2.108,1.307C1211.118,1889.146,1211.036,1889.182,1210.965,1889.139Z" transform="translate(-1210.875 -1887.295)"/></g><path class="e" d="M1130.7,1899.2c-.935-3.009-2.53-3.336-3.4-3.264l-.276,2.4c-.053.46.206.876.543.875Z" transform="translate(-4015.935 1957.238)"/><path class="b" d="M782.009,1755.9l-3.517,11.7-1.145,4.686-3.9.361,2.773-18.659Z" transform="translate(-3694.143 2085.711)"/><path class="d" d="M773.834,1925.806l-13.093.044a.114.114,0,0,1-.114-.113l0-1.114a.114.114,0,0,1,.113-.114l13.093-.044a.114.114,0,0,1,.114.113l0,1.114A.113.113,0,0,1,773.834,1925.806Z" transform="matrix(0.978, -0.208, 0.208, 0.978, -4064.972, 2139.045)"/><path class="c" d="M762.747,1874.929l-.429,3.729c-.053.46.206.876.543.875l11.737-.039a.855.855,0,0,0,.764-.551,1.63,1.63,0,0,0-.334-1.661c-1.056-1.482-4.51-1.833-6.2-3.1l-5.468.018C763.055,1874.207,762.8,1874.513,762.747,1874.929Z" transform="matrix(0.978, -0.208, 0.208, 0.978, -4057.005, 2183.874)"/><g transform="matrix(0.978, -0.208, 0.208, 0.978, -2916.139, 3857.765)"><path class="d" d="M821.434,1879.446h0a.252.252,0,0,1-.068-.3,2.267,2.267,0,0,1,2.411-1.507c.085.015.143.127.129.243v0c-.014.112-.09.186-.172.172a1.956,1.956,0,0,0-2.108,1.307C821.587,1879.453,821.5,1879.489,821.434,1879.446Z" transform="translate(-821.343 -1877.603)"/></g><g transform="matrix(0.978, -0.208, 0.208, 0.978, -2914.846, 3857.976)"><path class="d" d="M834.3,1884.461h0a.252.252,0,0,1-.068-.3,2.267,2.267,0,0,1,2.411-1.507c.085.014.143.127.128.243v0c-.014.112-.09.186-.172.173a1.955,1.955,0,0,0-2.108,1.307C834.449,1884.468,834.367,1884.5,834.3,1884.461Z" transform="translate(-834.206 -1882.617)"/></g><g transform="matrix(0.978, -0.208, 0.208, 0.978, -2913.643, 3858.175)"><path class="d" d="M846.259,1889.139h0a.252.252,0,0,1-.068-.3,2.267,2.267,0,0,1,2.411-1.507c.085.014.143.127.128.243v0c-.014.113-.089.186-.172.173a1.956,1.956,0,0,0-2.108,1.307C846.411,1889.146,846.33,1889.182,846.259,1889.139Z" transform="translate(-846.168 -1887.295)"/></g><path class="b" d="M1082.042,788.147c-.124-.08-1.213,1.237-1.313,1.1s.748-2.33.544-2.287-1.234,1.971-1.341,1.888.743-2.187.455-2.286-1.142,2.236-1.339,2.065.739-2.542.462-2.589c-.233-.04-1.344,2.586-1.691,3.422a.147.147,0,0,1-.258.025c-1.011-1.49-1.176-1.547-1.314-1.4s.351,5.01.351,5.01l-8.633,11.012s-9.391-12.079-11.376-12.7a7.832,7.832,0,0,0-2.937-.665L1056,802.5c3.894,4.131,10.491,10.445,13.725,9.606,3.831-1,7.614-12.062,8.942-16.336h0l2-3.842C1082.261,788.261,1082.165,788.228,1082.042,788.147Z" transform="translate(-3949.531 2961.805)"/><path class="b" d="M934.342,721.995l-.426-6.039-4.7-.7-.87,6.761S932.473,722.963,934.342,721.995Z" transform="translate(-3836.113 3025.867)"/><path class="f" d="M939.545,718.827l-.2-2.872-4.7-.7-.3,2.341A4.758,4.758,0,0,0,939.545,718.827Z" transform="translate(-3841.539 3025.867)"/><path class="f" d="M1039.145,656.374a1.377,1.377,0,1,0,1.979-.841A1.54,1.54,0,0,0,1039.145,656.374Z" transform="translate(-3936.181 3080.043)"/><path class="b" d="M894.676,582.238a13.276,13.276,0,0,0,1.067-3.205c.045-.216.1-.429.163-.641a7.175,7.175,0,1,0-14.027-2.757,1.55,1.55,0,0,0-1.377-.258,2.163,2.163,0,0,0,1.3,4.016,1.37,1.37,0,0,0,.341-.168,6.727,6.727,0,0,0,5.99,6.847A6.611,6.611,0,0,0,894.676,582.238Z" transform="translate(-3791.833 3158.038)"/><path class="f" d="M986.291,645.9c0,.411-.019.812-.015,1.206a2.67,2.67,0,0,0,.175,1.075l.029.045a.584.584,0,0,0,.036.055.98.98,0,0,1,.1.159.811.811,0,0,1,.09.381.847.847,0,0,1-.342.65,1.384,1.384,0,0,1-1.244.186,1.707,1.707,0,0,0,1.029-.426.544.544,0,0,0,.166-.405.456.456,0,0,0-.061-.2.616.616,0,0,0-.062-.094l-.048-.07-.054-.082a1.6,1.6,0,0,1-.165-.664,3.352,3.352,0,0,1,.03-.632A4.294,4.294,0,0,1,986.291,645.9Z" transform="translate(-3887.504 3088.638)"/><path class="r" d="M947.853,628.228a6.45,6.45,0,0,0-.905-.26,3.181,3.181,0,0,0-.868-.057,2.936,2.936,0,0,0-.846.185c-.146.039-.276.119-.425.173s-.278.147-.439.21a2.638,2.638,0,0,1,.3-.405,2.134,2.134,0,0,1,.393-.324,2.022,2.022,0,0,1,.986-.33,2.112,2.112,0,0,1,1.022.182A1.927,1.927,0,0,1,947.853,628.228Z" transform="translate(-3850.62 3105.375)"/><path class="r" d="M1009.969,636.694a1.927,1.927,0,0,1,.929-.383,2.113,2.113,0,0,1,1.032.111,2.02,2.02,0,0,1,.854.593,2.136,2.136,0,0,1,.287.421,2.628,2.628,0,0,1,.171.472c-.137-.1-.243-.222-.363-.324s-.23-.207-.359-.285a2.941,2.941,0,0,0-.76-.414,3.178,3.178,0,0,0-.85-.187A6.453,6.453,0,0,0,1009.969,636.694Z" transform="translate(-3909.994 3097.34)"/><path class="b" d="M895.377,741.415s7.063,2.993,11.3,4.284c0,0-1.29,5.406-1.72,5.16s-9.274-2.641-9.274-2.641Z" transform="translate(-3806.277 3002.192)"/><path class="s" d="M760.626,1167.635s1.549,18.555,8.182,30.961l-6.635,37.049s2.25-.9,7.984-.9c0,0,9.7-33.63,10.258-36.148s-2.565-15.646-2.565-15.646l16.173,45.812a15.811,15.811,0,0,0,7.952-1.445l-15.111-58.367-9.581-6.407Z" transform="translate(-3684.313 2621.028)"/><path class="b" d="M489.522,823.676c-5.717,5.125-17.9,22.593-17.9,22.593h0l-.364.2c-3.606,2.129-3.273,1.853-3.217,2s1.788-.306,1.788-.126-2.062,1.517-1.862,1.6,2.255-.915,2.294-.778-1.97,1.4-1.786,1.658,2.339-1.2,2.4-.93-2.184,1.7-1.977,1.912c.173.177,2.724-1.368,3.532-1.864a.154.154,0,0,1,.234.137c-.054,1.882.052,2.031.26,1.99a24.816,24.816,0,0,0,1.346-3.117l.483-1.232h0c3.176-3.442,12.924-13.764,19.39-19.367C492.645,826.835,491.036,825.209,489.522,823.676Z" transform="translate(-3419.419 2927.737)"/><path class="t" d="M677.151,753.868s-4.79,19.652-4.3,32.181A63.232,63.232,0,0,0,701.471,789s-2.456-17.565-2.579-18.67,3.071-10.072,3.071-10.072a31.487,31.487,0,0,0,5.527,5.773s3.562-1.593,5.773-6.692c0,0-7.493-8.907-9.826-10.872a15.62,15.62,0,0,0-5.282-2.765s-8.229.336-11.3-4.284c0,0-8.107.393-12.16,2.492s-9.7,6.96-9.7,6.96a12.709,12.709,0,0,0,3.808,7.177Z" transform="translate(-3597.754 3002.192)"/><path class="n" d="M684.133,743.826c-2.731.3-6.887.942-9.438,2.264-4.053,2.1-9.7,6.96-9.7,6.96a12.709,12.709,0,0,0,3.808,7.177l8.352-4.176s-4.79,19.652-4.3,32.181a63.232,63.232,0,0,0,28.619,2.948s-.238-1.7-.57-4.086C674.442,781.56,680.7,754.228,684.133,743.826Z" transform="translate(-3597.754 3000.009)"/><path class="c" d="M957.229,647.137a.642.642,0,1,1-.718-.556A.641.641,0,0,1,957.229,647.137Z" transform="translate(-3861.101 3088.031)"/><path class="c" d="M1014.879,655.545a.642.642,0,1,1-.718-.556A.641.641,0,0,1,1014.879,655.545Z" transform="translate(-3913.28 3080.421)"/><path class="r" d="M890.929,548.326s1.225.086,1.682-.365a1.714,1.714,0,0,1-1.973-1.544,6.648,6.648,0,0,0-4.059-4.729c-2.267-.859-8.393-1.335-10.153.008a6.207,6.207,0,0,0-2.694,4.911c-.16,2.129-.9,2.92-1.515,2.848a1.92,1.92,0,0,0,1.56.093,1.41,1.41,0,0,1-1.029,1.072s1.95.1,2.534-1.037c0,0-.332,2.3-.9,2.747,0,0,1.627-.424,2.549-4.15,0,0,6.617-1.52,8.1-4.34,0,0-1.292,2.853-2.36,3.174a4.59,4.59,0,0,0,4.408-1.908,11.788,11.788,0,0,1,2.089,2.915,16.327,16.327,0,0,1,.361,3.8l1.239-2.719a1.659,1.659,0,0,0,1.609.383S891.083,548.906,890.929,548.326Z" transform="translate(-3785.313 3183.717)"/><path class="f" d="M959.957,686.212a3.33,3.33,0,0,0,.494.643,2.638,2.638,0,0,0,2.2.642,1.89,1.89,0,0,1-2.342-.518A1.8,1.8,0,0,1,959.957,686.212Z" transform="translate(-3864.728 3052.156)"/></g><path class="b" d="M2073.377,599.993a.189.189,0,0,1-.316-.105c-.2-1.148-.835-4.758-1.139-4.775-.361-.02.132,3.219-.164,3.378s-.7-3.013-1.086-2.972.073,2.921-.085,3-.9-2.637-1.139-2.75.192,2.878.026,3.022-1.153-1.819-1.331-1.754-.308.079.647,5.137l.461,1.975v.741l3.971-.741a54.981,54.981,0,0,0,2.2-5.528C2075.3,598.392,2075.072,598.415,2073.377,599.993Z" transform="translate(-1751.21 53.285)"/><path class="b" d="M2073.377,599.993a.189.189,0,0,1-.316-.105c-.2-1.148-.835-4.758-1.139-4.775-.361-.02.132,3.219-.164,3.378s-.7-3.013-1.086-2.972.073,2.921-.085,3-.9-2.637-1.139-2.75.192,2.878.026,3.022-1.153-1.819-1.331-1.754-.308.079.647,5.137l.461,1.975,1.247,1.409,2.13-.761s2.934-5.94,2.8-6.176S2075.072,598.415,2073.377,599.993Z" transform="translate(-1872.018 53.436)"/></g></svg>