<svg xmlns="http://www.w3.org/2000/svg" width="374.999" height="274" viewBox="0 0 374.999 274"><defs><style>.a{fill:#6a63ac;}</style></defs><path class="a" d="M2733.5,1501a365.832,365.832,0,0,1-54.185-4.005,336.672,336.672,0,0,1-50.135-11.45,295.813,295.813,0,0,1-44.85-18.046,246.5,246.5,0,0,1-38.33-23.793V1227h375v216.707a246.509,246.509,0,0,1-38.33,23.793,295.787,295.787,0,0,1-44.85,18.046,336.672,336.672,0,0,1-50.135,11.45A365.863,365.863,0,0,1,2733.5,1501Z" transform="translate(-2546 -1227)"/></svg>